<?xml version="1.0" encoding="UTF-8" ?>
<!DOCTYPE svg PUBLIC "-//W3C//DTD SVG 1.1//EN" "http://www.w3.org/Graphics/SVG/1.1/DTD/svg11.dtd">
<svg width="23pt" height="23pt" viewBox="0 0 23 23" version="1.1" xmlns="http://www.w3.org/2000/svg">
<g id="#252525ff">
</g>
<g id="#919191ff">
<path fill="#919191" opacity="1.00" d=" M 3.01 2.97 C 6.21 -0.44 12.42 0.13 14.92 4.09 C 16.97 6.77 16.34 10.39 14.94 13.20 C 17.50 16.00 20.24 18.62 22.86 21.36 C 22.49 21.73 21.74 22.48 21.37 22.85 C 18.64 20.24 16.01 17.54 13.27 14.95 C 10.42 16.30 6.76 16.99 4.08 14.88 C 0.14 12.36 -0.45 6.14 3.01 2.97 M 6.13 3.18 C 2.31 4.75 1.57 10.56 4.91 13.00 C 8.18 15.82 14.13 13.46 14.20 9.01 C 14.86 4.75 9.95 1.36 6.13 3.18 Z" />
</g>
</svg>
